<?xml version="1.0" encoding="utf-8"?>
<!-- Generator: Adobe Illustrator 16.0.3, SVG Export Plug-In . SVG Version: 6.00 Build 0)  -->
<!DOCTYPE svg PUBLIC "-//W3C//DTD SVG 1.1//EN" "http://www.w3.org/Graphics/SVG/1.1/DTD/svg11.dtd">
<svg version="1.1" id="Layer_1" xmlns="http://www.w3.org/2000/svg" xmlns:xlink="http://www.w3.org/1999/xlink" x="0px" y="0px"
	 width="43px" height="10px" viewBox="0 0 43 10" enable-background="new 0 0 43 10" xml:space="preserve">
<g>
	<rect x="11.415" y="8.641" fill="#FFFFFF" width="0.183" height="0.807"/>
	<polygon fill="#FFFFFF" points="13.946,9.105 13.649,9.105 13.649,9.297 13.981,9.297 13.981,9.447 13.466,9.447 13.466,8.641 
		13.963,8.641 13.963,8.791 13.649,8.791 13.649,8.957 13.946,8.957 	"/>
	<polygon fill="#FFFFFF" points="15.3,9.105 15.003,9.105 15.003,9.297 15.334,9.297 15.334,9.447 14.82,9.447 14.82,8.641 
		15.317,8.641 15.317,8.791 15.003,8.791 15.003,8.957 15.3,8.957 	"/>
	<polygon fill="#FFFFFF" points="17.655,9.105 17.358,9.105 17.358,9.297 17.689,9.297 17.689,9.447 17.175,9.447 17.175,8.641 
		17.672,8.641 17.672,8.791 17.358,8.791 17.358,8.957 17.655,8.957 	"/>
	<polygon fill="#FFFFFF" points="19.876,9.105 19.579,9.105 19.579,9.297 19.911,9.297 19.911,9.447 19.395,9.447 19.395,8.641 
		19.894,8.641 19.894,8.791 19.579,8.791 19.579,8.957 19.876,8.957 	"/>
	<rect x="25.896" y="8.641" fill="#FFFFFF" width="0.183" height="0.807"/>
	<polygon fill="#FFFFFF" points="26.398,8.795 26.182,8.795 26.182,8.641 26.802,8.641 26.802,8.795 26.582,8.795 26.582,9.447 
		26.398,9.447 	"/>
	<polygon fill="#FFFFFF" points="28.275,8.795 28.059,8.795 28.059,8.641 28.679,8.641 28.679,8.795 28.459,8.795 28.459,9.447 
		28.275,9.447 	"/>
	<polygon fill="#FFFFFF" points="31.13,8.795 30.914,8.795 30.914,8.641 31.535,8.641 31.535,8.795 31.314,8.795 31.314,9.447 
		31.13,9.447 	"/>
	<path fill="#FFFFFF" d="M3.274,4.548v1.483c0,0.088-0.007,0.161-0.024,0.216c0.009,0.19,0.028,0.336,0.056,0.435
		c0.028,0.099,0.085,0.177,0.173,0.235c0.087,0.057,0.228,0.1,0.422,0.131C4.124,7.074,4.236,7.15,4.236,7.275
		c0,0.145-0.083,0.217-0.249,0.217c-0.155,0-0.425-0.008-0.81-0.021C2.794,7.457,2.508,7.449,2.319,7.449
		c-0.128,0-0.38,0.008-0.755,0.021S0.923,7.492,0.77,7.492c-0.082,0-0.146-0.012-0.196-0.039C0.525,7.428,0.5,7.369,0.5,7.275
		c0-0.074,0.03-0.131,0.089-0.17c0.06-0.039,0.126-0.057,0.206-0.057C1.003,7.02,1.155,6.977,1.25,6.918
		c0.096-0.059,0.157-0.137,0.184-0.237s0.041-0.245,0.041-0.434V6.03V2.184V1.967c0-0.293-0.036-0.497-0.107-0.612
		C1.297,1.24,1.126,1.163,0.857,1.124C0.739,1.11,0.65,1.089,0.59,1.061C0.53,1.032,0.5,0.981,0.5,0.908
		c0-0.093,0.021-0.15,0.061-0.172c0.041-0.022,0.104-0.033,0.188-0.033c0.226,0,0.521,0.008,0.886,0.024
		C2,0.743,2.264,0.751,2.427,0.751c0.221,0,0.48-0.008,0.778-0.024c0.298-0.016,0.558-0.024,0.782-0.024
		c0.166,0,0.249,0.065,0.249,0.194c0,0.072-0.021,0.121-0.063,0.148C4.13,1.071,4.054,1.097,3.942,1.124
		C3.714,1.163,3.557,1.213,3.468,1.274C3.38,1.336,3.324,1.427,3.304,1.549c-0.02,0.12-0.03,0.333-0.03,0.637v1.379
		c0,0.049-0.007,0.089-0.024,0.119C3.267,3.74,3.288,3.769,3.316,3.769c0.026,0,0.125-0.068,0.293-0.204
		c0.068-0.073,0.185-0.191,0.35-0.356c0.166-0.166,0.323-0.323,0.472-0.474C4.578,2.583,4.858,2.292,5.27,1.86
		c0.267-0.282,0.402-0.471,0.402-0.564c0-0.115-0.105-0.172-0.315-0.172C5.192,1.108,5.072,1.087,5,1.061
		C4.927,1.034,4.892,0.973,4.892,0.877c0-0.079,0.022-0.128,0.068-0.146c0.045-0.018,0.121-0.028,0.225-0.028h2.607h0.074
		c0.158,0,0.238,0.051,0.238,0.152c0,0.179-0.199,0.268-0.595,0.268c-0.455,0-0.848,0.148-1.178,0.444l-1.126,1.04
		C4.939,2.875,4.804,3.053,4.804,3.139c0,0.069,0.052,0.151,0.154,0.249l2.508,2.936C7.727,6.64,7.902,6.83,7.996,6.896
		c0.078,0.064,0.188,0.105,0.33,0.121c0.141,0.02,0.232,0.033,0.271,0.049c0.041,0.014,0.06,0.068,0.06,0.166
		c0,0.174-0.148,0.26-0.444,0.26c-0.167,0-0.428-0.008-0.782-0.021S6.814,7.449,6.644,7.449c-0.165,0-0.41,0.008-0.738,0.021
		s-0.567,0.021-0.72,0.021c-0.196,0-0.293-0.086-0.293-0.26c0-0.076,0.024-0.131,0.074-0.156c0.05-0.029,0.119-0.049,0.211-0.063
		c0.091-0.012,0.16-0.027,0.203-0.045s0.064-0.055,0.064-0.113c0-0.045-0.012-0.088-0.035-0.129s-0.06-0.087-0.106-0.14
		c-0.048-0.052-0.095-0.103-0.14-0.155L3.629,4.527C3.486,4.353,3.385,4.254,3.326,4.234c-0.03,0-0.055,0.065-0.077,0.195
		C3.267,4.459,3.274,4.499,3.274,4.548"/>
	<path fill="#FFFFFF" d="M8.162,3.857C8.045,3.621,7.943,3.435,7.855,3.3c-0.088-0.135-0.162-0.226-0.22-0.274
		C7.576,2.978,7.514,2.95,7.45,2.942C7.386,2.935,7.328,2.929,7.277,2.925C7.068,2.881,6.962,2.798,6.962,2.676
		c0-0.116,0.12-0.174,0.357-0.174h2.728c0.252,0,0.38,0.058,0.38,0.174c0,0.1-0.059,0.167-0.176,0.2
		c-0.117,0.033-0.234,0.065-0.353,0.098c-0.118,0.033-0.177,0.099-0.177,0.2c0,0.067,0.059,0.222,0.175,0.465l0.8,1.7
		c0.014,0.018,0.039,0.059,0.074,0.122c0.036,0.063,0.065,0.112,0.09,0.145c0.025,0.033,0.049,0.049,0.074,0.049
		c0.05,0,0.093-0.039,0.129-0.118c0.037-0.078,0.07-0.151,0.098-0.218l0.725-1.634c0.081-0.176,0.122-0.317,0.122-0.423
		c0-0.12-0.04-0.201-0.121-0.243c-0.08-0.042-0.197-0.071-0.351-0.087c-0.154-0.016-0.266-0.038-0.336-0.066
		c-0.068-0.028-0.104-0.091-0.104-0.187c0-0.116,0.124-0.174,0.371-0.174h1.849c0.113,0,0.188,0.01,0.226,0.03
		c0.039,0.02,0.057,0.069,0.057,0.145c0,0.146-0.097,0.229-0.293,0.249c-0.173,0.016-0.298,0.042-0.376,0.08
		c-0.078,0.037-0.165,0.131-0.26,0.283c-0.096,0.152-0.236,0.425-0.423,0.818l-1.59,3.35c-0.012,0.031-0.116,0.279-0.311,0.744
		c-0.194,0.465-0.3,0.727-0.318,0.785C9.929,9.27,9.864,9.453,9.827,9.535c-0.038,0.08-0.104,0.143-0.201,0.184
		C9.529,9.76,9.366,9.781,9.137,9.781c-0.321,0-0.56-0.039-0.715-0.115C8.263,9.59,8.186,9.428,8.186,9.186
		c0-0.453,0.19-0.697,0.573-0.73c0.187,0.029,0.352,0.043,0.497,0.043c0.183,0,0.354-0.074,0.511-0.223
		c0.158-0.15,0.238-0.318,0.238-0.502c0-0.156-0.073-0.354-0.217-0.586L8.162,3.857z"/>
	<path fill="#FFFFFF" d="M14.22,4.387V4.191c0-0.178-0.031-0.315-0.092-0.414c-0.062-0.098-0.193-0.151-0.394-0.16
		c-0.016,0-0.039,0.007-0.066,0.021c-0.09-0.018-0.155-0.038-0.197-0.061c-0.041-0.023-0.062-0.071-0.062-0.146
		c0-0.066,0.038-0.116,0.111-0.147c0.074-0.031,0.192-0.069,0.354-0.11c0.227-0.044,0.479-0.136,0.755-0.273
		c0.278-0.138,0.49-0.292,0.64-0.46c0.123-0.123,0.25-0.184,0.381-0.184c0.065,0,0.11,0.028,0.135,0.085
		c0.025,0.057,0.037,0.162,0.037,0.313V5.99c0,0.203-0.007,0.35-0.021,0.442c0.006,0.163,0.017,0.281,0.034,0.351
		s0.046,0.123,0.089,0.152c0.042,0.031,0.108,0.055,0.198,0.066c0.09,0.014,0.203,0.029,0.341,0.047
		c0.08,0.008,0.14,0.035,0.184,0.082c0.043,0.045,0.064,0.088,0.064,0.123c0,0.145-0.112,0.217-0.336,0.217h-2.706
		c-0.231,0-0.347-0.072-0.347-0.217c0-0.084,0.033-0.141,0.099-0.17c0.066-0.031,0.164-0.051,0.292-0.059
		c0.128-0.01,0.225-0.023,0.292-0.043c0.067-0.02,0.111-0.063,0.129-0.127c0.058-0.127,0.088-0.416,0.088-0.867V4.387z"/>
	<path fill="#FFFFFF" d="M14.045,1.04c0-0.248,0.098-0.447,0.293-0.596c0.197-0.15,0.417-0.225,0.66-0.225
		c0.255,0,0.478,0.072,0.667,0.216c0.19,0.144,0.285,0.347,0.285,0.604c0,0.279-0.096,0.498-0.289,0.653s-0.42,0.234-0.685,0.234
		c-0.258,0-0.479-0.081-0.661-0.24C14.136,1.529,14.045,1.313,14.045,1.04"/>
	<path fill="#FFFFFF" d="M17.063,3.704c-0.118-0.25-0.203-0.418-0.253-0.505c-0.051-0.087-0.114-0.153-0.189-0.197
		c-0.075-0.044-0.187-0.077-0.337-0.098c-0.096-0.014-0.161-0.033-0.196-0.055c-0.034-0.023-0.052-0.07-0.052-0.14
		c0-0.138,0.12-0.206,0.357-0.206h2.706c0.223,0,0.336,0.065,0.336,0.195c0,0.086-0.03,0.143-0.09,0.169
		c-0.059,0.027-0.152,0.046-0.275,0.058c-0.125,0.012-0.219,0.033-0.28,0.063c-0.062,0.029-0.092,0.091-0.092,0.186
		c0,0.036,0.015,0.096,0.046,0.181c0.033,0.085,0.056,0.156,0.072,0.21l0.769,1.731c0.081,0.21,0.142,0.315,0.185,0.315
		c0.057,0,0.114-0.09,0.172-0.272l0.575-1.276c0.166-0.366,0.249-0.62,0.249-0.759c-0.021-0.213-0.185-0.339-0.489-0.378
		c-0.132-0.016-0.224-0.035-0.277-0.057c-0.053-0.022-0.079-0.075-0.079-0.16c0-0.138,0.09-0.206,0.271-0.206h1.906
		c0.208,0,0.312,0.065,0.312,0.195c0,0.111-0.082,0.187-0.249,0.227c-0.248,0.035-0.408,0.073-0.481,0.114
		c-0.072,0.041-0.157,0.165-0.254,0.372l-1.775,3.704c-0.101,0.191-0.177,0.313-0.229,0.365c-0.052,0.051-0.146,0.078-0.282,0.078
		c-0.074,0-0.135-0.008-0.184-0.021s-0.086-0.037-0.113-0.066c-0.027-0.031-0.059-0.088-0.094-0.17
		c-0.036-0.082-0.06-0.137-0.074-0.166L17.063,3.704z"/>
	<path fill="#FFFFFF" d="M24.559,3.544c0,0.224,0.022,0.352,0.066,0.381c0.132,0.094,0.327,0.14,0.583,0.14
		c0.292,0,0.53-0.072,0.714-0.217c0.184-0.145,0.317-0.33,0.398-0.555c0.081-0.226,0.121-0.459,0.121-0.704
		c0-0.401-0.116-0.746-0.352-1.034c-0.235-0.288-0.543-0.432-0.923-0.432c-0.238,0-0.398,0.064-0.482,0.191
		c-0.083,0.127-0.125,0.317-0.125,0.57v0.487V3.544z M24.559,4.678v1.353c0,0.262,0.01,0.452,0.03,0.569
		c0.02,0.118,0.076,0.212,0.167,0.284c0.09,0.074,0.242,0.127,0.453,0.164c0.224,0.025,0.335,0.102,0.335,0.227
		c0,0.145-0.082,0.217-0.249,0.217c-0.155,0-0.425-0.008-0.81-0.021s-0.671-0.021-0.859-0.021c-0.128,0-0.381,0.008-0.757,0.021
		c-0.375,0.014-0.64,0.021-0.792,0.021c-0.081,0-0.146-0.012-0.196-0.039c-0.049-0.025-0.075-0.084-0.075-0.178
		c0-0.074,0.03-0.131,0.09-0.17c0.058-0.039,0.127-0.057,0.204-0.057c0.21-0.029,0.362-0.072,0.457-0.131
		c0.096-0.059,0.157-0.137,0.185-0.237c0.027-0.101,0.041-0.245,0.041-0.434V6.03V2.184V1.967c0-0.21-0.013-0.367-0.038-0.471
		c-0.024-0.104-0.081-0.185-0.168-0.243c-0.087-0.058-0.225-0.101-0.413-0.13c-0.135-0.017-0.227-0.036-0.279-0.055
		c-0.052-0.02-0.079-0.065-0.079-0.14c0-0.15,0.083-0.226,0.25-0.226c0.216,0,0.463,0.008,0.737,0.024
		c0.275,0.016,0.496,0.023,0.662,0.023c0.355,0,0.757-0.008,1.202-0.023c0.444-0.016,0.82-0.024,1.124-0.024
		c0.39,0,0.706,0.024,0.949,0.073c0.242,0.048,0.476,0.143,0.7,0.284c0.562,0.355,0.844,0.864,0.844,1.529
		c-0.009,0.346-0.096,0.677-0.26,0.997c-0.164,0.319-0.406,0.581-0.728,0.785c-0.321,0.205-0.71,0.307-1.167,0.307
		c-0.187,0-0.349-0.016-0.486-0.045c-0.138-0.03-0.313-0.075-0.528-0.134c-0.214-0.06-0.355-0.089-0.427-0.089
		c-0.074,0-0.12,0.046-0.139,0.14C24.552,4.579,24.559,4.622,24.559,4.678"/>
	<path fill="#FFFFFF" d="M29.789,4.677c0,0.396,0.057,0.787,0.17,1.174c0.114,0.386,0.278,0.704,0.494,0.953
		c0.215,0.248,0.467,0.373,0.756,0.373c0.352,0,0.637-0.18,0.854-0.542c0.218-0.361,0.327-0.859,0.327-1.491
		c0-0.428-0.062-0.829-0.188-1.201c-0.125-0.372-0.294-0.667-0.509-0.886c-0.214-0.219-0.448-0.328-0.702-0.328
		c-0.228,0-0.432,0.081-0.614,0.241c-0.183,0.16-0.326,0.389-0.431,0.688C29.841,3.958,29.789,4.296,29.789,4.677 M28.032,4.959
		c0-0.5,0.147-0.948,0.438-1.343c0.292-0.395,0.673-0.701,1.145-0.917c0.472-0.216,0.966-0.325,1.482-0.325
		c0.438,0,0.84,0.066,1.209,0.198c0.368,0.132,0.687,0.314,0.953,0.546c0.267,0.23,0.474,0.499,0.619,0.803
		c0.147,0.305,0.221,0.622,0.221,0.951c0,0.525-0.146,0.99-0.438,1.396c-0.292,0.406-0.673,0.718-1.144,0.938
		c-0.471,0.219-0.965,0.328-1.483,0.328c-0.507,0-0.989-0.098-1.449-0.291c-0.46-0.195-0.835-0.486-1.122-0.878
		C28.176,5.976,28.032,5.508,28.032,4.959"/>
	<path fill="#FFFFFF" d="M34.376,6.204c0.018-0.147,0.037-0.248,0.06-0.299c0.021-0.053,0.089-0.079,0.2-0.079
		c0.097,0,0.185,0.067,0.26,0.201c0.078,0.134,0.171,0.298,0.282,0.493c0.111,0.195,0.261,0.354,0.45,0.475
		c0.189,0.123,0.444,0.184,0.764,0.184c0.145,0,0.298-0.025,0.463-0.074c0.163-0.051,0.304-0.129,0.421-0.234
		s0.176-0.237,0.176-0.396c0-0.196-0.076-0.355-0.227-0.475c-0.15-0.12-0.375-0.228-0.672-0.325
		c-0.424-0.138-0.723-0.236-0.893-0.298c-0.172-0.062-0.362-0.154-0.572-0.276c-0.21-0.122-0.381-0.274-0.514-0.455
		c-0.131-0.182-0.198-0.394-0.198-0.637c0-0.294,0.099-0.567,0.296-0.817c0.198-0.251,0.463-0.45,0.796-0.596
		c0.333-0.146,0.695-0.219,1.084-0.219c0.438,0,0.938,0.065,1.504,0.195c0.148,0.044,0.238,0.085,0.268,0.123
		c0.031,0.038,0.046,0.137,0.046,0.297v0.272c-0.016,0.097-0.035,0.203-0.06,0.316c-0.023,0.114-0.08,0.17-0.168,0.17
		c-0.1,0-0.226-0.083-0.377-0.249c-0.184-0.248-0.307-0.408-0.37-0.479s-0.154-0.134-0.275-0.188C37,2.778,36.84,2.752,36.638,2.752
		c-0.254,0-0.465,0.048-0.635,0.145c-0.17,0.097-0.254,0.24-0.254,0.428c0,0.204,0.084,0.344,0.253,0.418
		c0.17,0.075,0.529,0.201,1.079,0.377c0.551,0.177,0.958,0.376,1.221,0.598s0.395,0.539,0.395,0.955
		c0,0.323-0.095,0.629-0.284,0.917c-0.188,0.288-0.473,0.521-0.852,0.698c-0.38,0.178-0.842,0.268-1.387,0.268
		c-0.609,0-1.115-0.109-1.518-0.326c-0.121-0.061-0.202-0.127-0.242-0.197c-0.039-0.07-0.06-0.191-0.06-0.364L34.376,6.204z"/>
	<path fill="#FFFFFF" d="M41.077,3.452v1.802c0,0.305,0.012,0.562,0.035,0.768c0.023,0.207,0.073,0.374,0.148,0.502
		c0.077,0.127,0.189,0.193,0.339,0.193c0.105,0,0.201-0.021,0.286-0.064c0.085-0.041,0.177-0.095,0.277-0.16
		c0.101-0.066,0.169-0.099,0.208-0.099c0.034,0,0.063,0.015,0.09,0.042C42.486,6.464,42.5,6.5,42.5,6.545
		c0,0.097-0.08,0.227-0.239,0.391C42.1,7.1,41.891,7.244,41.63,7.369s-0.537,0.188-0.832,0.188c-0.408,0-0.731-0.139-0.973-0.414
		c-0.241-0.275-0.36-0.691-0.36-1.245V3.613c0-0.265-0.015-0.428-0.045-0.491c-0.029-0.063-0.111-0.094-0.246-0.094
		c-0.088,0-0.168,0.007-0.24,0.021c-0.151-0.027-0.228-0.076-0.228-0.149c0-0.058,0.027-0.107,0.079-0.147
		c0.054-0.04,0.139-0.088,0.257-0.144c0.687-0.272,1.168-0.661,1.441-1.166c0.127-0.238,0.253-0.356,0.378-0.356
		c0.117,0,0.174,0.079,0.174,0.237v0.161v0.748c0,0.137,0.011,0.221,0.031,0.251s0.086,0.051,0.197,0.063
		c0.044-0.016,0.087-0.023,0.13-0.023h0.595h0.123c0.091,0,0.154,0.012,0.187,0.036c0.034,0.025,0.05,0.081,0.05,0.167
		c0,0.144-0.021,0.229-0.063,0.258c-0.042,0.029-0.148,0.043-0.317,0.043h-0.53c-0.133,0-0.22,0.006-0.263,0.019
		c-0.044,0.012-0.07,0.043-0.081,0.094C41.083,3.191,41.077,3.295,41.077,3.452"/>
	<path fill="#FFFFFF" d="M11.773,9.447V8.641h0.213l0.168,0.295c0.047,0.086,0.095,0.186,0.131,0.277h0.004
		c-0.012-0.107-0.016-0.215-0.016-0.338V8.641h0.168v0.807H12.25l-0.172-0.311c-0.048-0.086-0.101-0.191-0.14-0.285l-0.004,0.002
		c0.005,0.105,0.007,0.219,0.007,0.352v0.242H11.773z"/>
	<path fill="#FFFFFF" d="M12.799,9.309c0.016,0.004,0.041,0.004,0.063,0.004c0.167,0.002,0.274-0.09,0.274-0.283
		c0.002-0.166-0.097-0.256-0.254-0.256c-0.041,0-0.067,0.004-0.083,0.008V9.309z M12.616,8.65c0.067-0.01,0.155-0.016,0.247-0.016
		c0.154,0,0.253,0.027,0.332,0.086c0.083,0.063,0.136,0.162,0.136,0.305c0,0.154-0.056,0.26-0.134,0.326
		c-0.085,0.072-0.215,0.104-0.373,0.104c-0.094,0-0.162-0.006-0.208-0.012V8.65z"/>
	<path fill="#FFFFFF" d="M14.309,9.018c0.015,0.004,0.034,0.004,0.061,0.004c0.097,0,0.158-0.047,0.158-0.129
		c0-0.076-0.052-0.121-0.143-0.121c-0.037,0-0.063,0.004-0.075,0.008V9.018z M14.127,8.65c0.056-0.01,0.135-0.016,0.246-0.016
		c0.113,0,0.193,0.021,0.248,0.064c0.051,0.041,0.086,0.109,0.086,0.188s-0.026,0.145-0.075,0.191
		c-0.062,0.059-0.154,0.084-0.261,0.084c-0.024,0-0.046,0-0.063-0.004v0.289h-0.181V8.65z"/>
	<path fill="#FFFFFF" d="M15.481,9.447V8.641h0.214l0.167,0.295c0.048,0.086,0.096,0.186,0.132,0.277h0.003
		c-0.012-0.107-0.015-0.215-0.015-0.338V8.641h0.167v0.807h-0.191l-0.172-0.311c-0.048-0.086-0.101-0.191-0.141-0.285l-0.003,0.002
		c0.005,0.105,0.007,0.219,0.007,0.352v0.242H15.481z"/>
	<path fill="#FFFFFF" d="M16.509,9.309c0.015,0.004,0.04,0.004,0.063,0.004c0.166,0.002,0.273-0.09,0.273-0.283
		c0.001-0.166-0.097-0.256-0.254-0.256c-0.041,0-0.067,0.004-0.082,0.008V9.309z M16.325,8.65c0.067-0.01,0.155-0.016,0.248-0.016
		c0.153,0,0.252,0.027,0.331,0.086c0.084,0.063,0.137,0.162,0.137,0.305c0,0.154-0.057,0.26-0.135,0.326
		c-0.085,0.072-0.214,0.104-0.373,0.104c-0.094,0-0.162-0.006-0.208-0.012V8.65z"/>
	<path fill="#FFFFFF" d="M17.836,9.447V8.641h0.213l0.167,0.295c0.048,0.086,0.096,0.186,0.132,0.277h0.003
		c-0.012-0.107-0.016-0.215-0.016-0.338V8.641h0.168v0.807h-0.192L18.14,9.137C18.092,9.051,18.04,8.945,18,8.852l-0.003,0.002
		c0.004,0.105,0.007,0.219,0.007,0.352v0.242H17.836z"/>
	<path fill="#FFFFFF" d="M19.268,9.426c-0.034,0.016-0.109,0.035-0.208,0.035c-0.279,0-0.422-0.176-0.422-0.404
		c0-0.277,0.196-0.43,0.44-0.43c0.094,0,0.166,0.02,0.199,0.037L19.24,8.809c-0.037-0.016-0.088-0.031-0.153-0.031
		c-0.145,0-0.258,0.088-0.258,0.268c0,0.162,0.097,0.264,0.259,0.264c0.055,0,0.117-0.012,0.152-0.025L19.268,9.426z"/>
	<path fill="#FFFFFF" d="M20.155,9.461c-0.062,0-0.105-0.047-0.105-0.111s0.044-0.111,0.107-0.111c0.063,0,0.106,0.047,0.106,0.111
		S20.22,9.461,20.155,9.461L20.155,9.461z"/>
	<path fill="#FFFFFF" d="M21.19,9.426c-0.033,0.016-0.108,0.035-0.208,0.035c-0.278,0-0.421-0.176-0.421-0.404
		c0-0.277,0.196-0.43,0.44-0.43c0.094,0,0.166,0.02,0.199,0.037l-0.038,0.145c-0.037-0.016-0.088-0.031-0.153-0.031
		c-0.146,0-0.258,0.088-0.258,0.268c0,0.162,0.096,0.264,0.259,0.264c0.055,0,0.116-0.012,0.152-0.025L21.19,9.426z"/>
	<path fill="#FFFFFF" d="M21.456,9.047c0,0.158,0.074,0.268,0.196,0.268c0.124,0,0.194-0.115,0.194-0.273
		c0-0.145-0.069-0.27-0.195-0.27C21.528,8.771,21.456,8.891,21.456,9.047 M22.039,9.035c0,0.266-0.16,0.426-0.396,0.426
		c-0.24,0-0.38-0.182-0.38-0.41c0-0.242,0.155-0.424,0.393-0.424C21.904,8.627,22.039,8.813,22.039,9.035"/>
	<path fill="#FFFFFF" d="M22.851,9.139c-0.004-0.098-0.007-0.213-0.007-0.33h-0.004c-0.025,0.102-0.058,0.217-0.09,0.311
		l-0.098,0.314h-0.143l-0.086-0.311c-0.027-0.096-0.054-0.211-0.072-0.314h-0.003c-0.005,0.107-0.009,0.232-0.015,0.332
		l-0.015,0.307h-0.169l0.051-0.807h0.244l0.079,0.27c0.026,0.092,0.05,0.193,0.069,0.289h0.002c0.023-0.094,0.05-0.201,0.077-0.291
		l0.087-0.268h0.238l0.045,0.807h-0.178L22.851,9.139z"/>
	<path fill="#FFFFFF" d="M23.879,9.139c-0.004-0.098-0.007-0.213-0.007-0.33h-0.003c-0.026,0.102-0.059,0.217-0.09,0.311
		l-0.098,0.314h-0.143l-0.086-0.311c-0.026-0.096-0.055-0.211-0.073-0.314h-0.002c-0.005,0.107-0.009,0.232-0.014,0.332
		l-0.015,0.307h-0.169l0.053-0.807h0.243l0.079,0.27c0.025,0.092,0.05,0.193,0.068,0.289h0.003c0.022-0.094,0.051-0.201,0.077-0.291
		l0.085-0.268h0.24l0.044,0.807h-0.179L23.879,9.139z"/>
	<path fill="#FFFFFF" d="M24.403,8.641v0.465c0,0.139,0.052,0.209,0.146,0.209c0.097,0,0.148-0.066,0.148-0.209V8.641h0.182v0.453
		c0,0.248-0.126,0.367-0.336,0.367c-0.205,0-0.324-0.113-0.324-0.369V8.641H24.403z"/>
	<path fill="#FFFFFF" d="M25.052,9.447V8.641h0.213l0.167,0.295c0.048,0.086,0.097,0.186,0.132,0.277h0.004
		c-0.013-0.107-0.017-0.215-0.017-0.338V8.641h0.168v0.807H25.53l-0.173-0.311c-0.047-0.086-0.101-0.191-0.14-0.285l-0.004,0.002
		c0.005,0.105,0.008,0.219,0.008,0.352v0.242H25.052z"/>
	<path fill="#FFFFFF" d="M27.122,9.447v-0.33l-0.255-0.477h0.209l0.083,0.193c0.025,0.061,0.042,0.102,0.063,0.154h0.002
		c0.018-0.049,0.037-0.096,0.062-0.154l0.081-0.193h0.205l-0.266,0.471v0.336H27.122z"/>
	<path fill="#FFFFFF" d="M27.677,9.461c-0.062,0-0.105-0.047-0.105-0.111s0.044-0.111,0.107-0.111s0.107,0.047,0.107,0.111
		S27.742,9.461,27.677,9.461L27.677,9.461z"/>
	<path fill="#FFFFFF" d="M28.962,8.998h0.072c0.09,0,0.145-0.045,0.145-0.115c0-0.074-0.05-0.111-0.135-0.113
		c-0.044,0-0.069,0.004-0.082,0.006V8.998z M28.781,8.65c0.059-0.01,0.147-0.016,0.244-0.016c0.12,0,0.204,0.018,0.26,0.063
		c0.049,0.039,0.075,0.096,0.075,0.17c0,0.104-0.074,0.174-0.143,0.197v0.004c0.056,0.023,0.087,0.076,0.108,0.152
		c0.025,0.09,0.049,0.195,0.065,0.227h-0.187c-0.013-0.023-0.031-0.09-0.056-0.188c-0.021-0.102-0.056-0.129-0.131-0.129h-0.055
		v0.316h-0.181V8.65z"/>
	<path fill="#FFFFFF" d="M29.684,8.641v0.465c0,0.139,0.052,0.209,0.146,0.209c0.096,0,0.148-0.066,0.148-0.209V8.641h0.182v0.453
		c0,0.248-0.126,0.367-0.336,0.367c-0.204,0-0.324-0.113-0.324-0.369V8.641H29.684z"/>
	<path fill="#FFFFFF" d="M30.328,9.26c0.049,0.025,0.125,0.049,0.203,0.049c0.084,0,0.127-0.033,0.127-0.086
		c0-0.051-0.038-0.08-0.135-0.115c-0.134-0.047-0.221-0.121-0.221-0.236c0-0.139,0.115-0.244,0.306-0.244
		c0.09,0,0.157,0.02,0.206,0.041l-0.041,0.146c-0.033-0.014-0.09-0.037-0.169-0.037c-0.08,0-0.117,0.035-0.117,0.076
		c0,0.053,0.045,0.076,0.149,0.115c0.142,0.053,0.209,0.127,0.209,0.24c0,0.135-0.104,0.252-0.326,0.252
		c-0.091,0-0.183-0.027-0.229-0.051L30.328,9.26z"/>
</g>
</svg>
